<svg width="54" height="54" viewBox="0 0 54 54" fill="none" xmlns="http://www.w3.org/2000/svg">
<g filter="url(#filter0_d_184_653)">
<path d="M27.1553 -6.86646e-05C39.772 -6.86646e-05 49.9999 10.2276 49.9999 22.8446C49.9999 35.4612 39.772 45.6892 27.1553 45.6892C14.5386 45.6892 4.31067 35.4612 4.31067 22.8446C4.31067 10.2276 14.5386 -6.86646e-05 27.1553 -6.86646e-05Z" fill="#919031"/>
<path d="M27.1553 8.46095C23.2487 8.46095 22.7589 8.47752 21.2248 8.54757C19.694 8.61729 18.6483 8.86029 17.7335 9.21599C16.7875 9.58354 15.9854 10.0753 15.1857 10.875C14.386 11.6748 13.8942 12.4769 13.5267 13.4228C13.1713 14.3376 12.928 15.3831 12.8582 16.9142C12.7882 18.4486 12.7716 18.938 12.7716 22.8446C12.7716 26.7509 12.7882 27.2409 12.8582 28.7751C12.928 30.3059 13.1713 31.3516 13.5267 32.2664C13.8942 33.2123 14.386 34.0145 15.1857 34.8139C15.9854 35.6136 16.7875 36.1053 17.7335 36.4732C18.6483 36.8286 19.694 37.0719 21.2248 37.1416C22.7589 37.2117 23.2487 37.2283 27.1553 37.2283C31.0615 37.2283 31.5513 37.2117 33.0854 37.1416C34.6165 37.0719 35.6623 36.8286 36.5771 36.4732C37.523 36.1053 38.3251 35.6136 39.1248 34.8139C39.9242 34.0145 40.4163 33.2123 40.7839 32.2664C41.1392 31.3516 41.3826 30.3059 41.4523 28.7751C41.5223 27.2409 41.5389 26.7509 41.5389 22.8446C41.5389 18.9383 41.5223 18.4486 41.4523 16.9142C41.3826 15.3831 41.1392 14.3376 40.7839 13.4228C40.4163 12.4769 39.9242 11.6748 39.1248 10.875C38.3251 10.0753 37.523 9.58354 36.5771 9.21599C35.6623 8.86029 34.6165 8.61729 33.0854 8.54757C31.5513 8.47752 31.0615 8.46095 27.1553 8.46095ZM27.1553 11.0527C30.9959 11.0527 31.4507 11.0673 32.9676 11.1363C34.3698 11.2006 35.1313 11.4348 35.6382 11.6318C36.3097 11.8927 36.7889 12.2044 37.2922 12.7077C37.7955 13.211 38.1072 13.6902 38.3681 14.3613C38.5651 14.8683 38.7993 15.6298 38.8636 17.0322C38.9326 18.5491 38.9472 19.004 38.9472 22.8446C38.9472 26.6852 38.9326 27.1401 38.8636 28.657C38.7993 30.0591 38.5651 30.821 38.3681 31.3276C38.1072 31.9991 37.7955 32.4783 37.2922 32.9816C36.7889 33.4848 36.3097 33.7965 35.6382 34.0574C35.1313 34.2544 34.3698 34.489 32.9676 34.5526C31.4507 34.622 30.9962 34.6365 27.1553 34.6365C23.3143 34.6365 22.8595 34.622 21.3429 34.5526C19.9408 34.489 19.1789 34.2544 18.6723 34.0574C18.0008 33.7965 17.5216 33.4848 17.0183 32.9816C16.5151 32.4783 16.2034 31.9991 15.9424 31.3276C15.7455 30.821 15.5113 30.0591 15.447 28.657C15.3779 27.1401 15.3634 26.6852 15.3634 22.8446C15.3634 19.004 15.3779 18.5491 15.447 17.0322C15.5113 15.6298 15.7455 14.8683 15.9424 14.3613C16.2034 13.6902 16.5147 13.211 17.0183 12.7077C17.5216 12.2044 18.0008 11.8927 18.6723 11.6318C19.1789 11.4348 19.9408 11.2006 21.3429 11.1363C22.8598 11.0673 23.3147 11.0527 27.1553 11.0527Z" fill="white"/>
<path d="M27.1553 27.6393C24.5073 27.6393 22.3606 25.4926 22.3606 22.8446C22.3606 20.1967 24.5073 18.0499 27.1553 18.0499C29.8032 18.0499 31.9499 20.1967 31.9499 22.8446C31.9499 25.4926 29.8032 27.6393 27.1553 27.6393ZM27.1553 15.4585C23.0761 15.4585 19.7692 18.7654 19.7692 22.8446C19.7692 26.9238 23.0761 30.2307 27.1553 30.2307C31.2345 30.2307 34.5414 26.9238 34.5414 22.8446C34.5414 18.7654 31.2345 15.4585 27.1553 15.4585Z" fill="white"/>
<path d="M36.5592 15.1665C36.5592 16.1199 35.7865 16.8926 34.8335 16.8926C33.8801 16.8926 33.1074 16.1199 33.1074 15.1665C33.1074 14.2132 33.8801 13.4405 34.8335 13.4405C35.7865 13.4405 36.5592 14.2132 36.5592 15.1665Z" fill="white"/>
</g>
<defs>
<filter id="filter0_d_184_653" x="0.310669" y="0" width="53.6893" height="53.6892" filterUnits="userSpaceOnUse" color-interpolation-filters="sRGB">
<feFlood flood-opacity="0" result="BackgroundImageFix"/>
<feColorMatrix in="SourceAlpha" type="matrix" values="0 0 0 0 0 0 0 0 0 0 0 0 0 0 0 0 0 0 127 0" result="hardAlpha"/>
<feOffset dy="4"/>
<feGaussianBlur stdDeviation="2"/>
<feComposite in2="hardAlpha" operator="out"/>
<feColorMatrix type="matrix" values="0 0 0 0 0 0 0 0 0 0 0 0 0 0 0 0 0 0 0.25 0"/>
<feBlend mode="normal" in2="BackgroundImageFix" result="effect1_dropShadow_184_653"/>
<feBlend mode="normal" in="SourceGraphic" in2="effect1_dropShadow_184_653" result="shape"/>
</filter>
</defs>
</svg>
