<svg width="103" height="59" viewBox="0 0 103 59" fill="none" xmlns="http://www.w3.org/2000/svg">
<path d="M76.6139 55.1386C77.3476 55.1386 78.0574 54.9817 78.7399 54.6652L76.7069 52.6373L78.9958 50.3484L81.0254 52.3796C81.353 51.6963 81.5151 50.9865 81.5151 50.2579C81.5151 48.9049 81.0254 47.7438 80.0511 46.7789C79.1144 45.8328 77.9678 45.3431 76.6139 45.3107C75.2677 45.3431 74.1049 45.8328 73.1357 46.7789C72.1717 47.7438 71.6871 48.9049 71.6871 50.2579C71.6871 51.6059 72.1717 52.7695 73.1357 53.7353C74.1049 54.6686 75.2677 55.1386 76.6139 55.1386ZM84.7637 50.2579C84.7637 51.9045 84.3269 53.3991 83.4533 54.7419L84.7637 56.1155L82.4723 58.4513L81.1192 57.0914C79.7653 57.9966 78.2655 58.4513 76.6139 58.4513C74.3582 58.4513 72.4225 57.6451 70.8024 56.0216C69.2191 54.4374 68.4222 52.5127 68.4222 50.2579C68.4222 47.9989 69.2191 46.0794 70.8024 44.49C72.4225 42.8733 74.3582 42.062 76.6139 42.062C78.8849 42.062 80.807 42.8733 82.3844 44.49C83.972 46.0794 84.7637 47.9989 84.7637 50.2579Z" fill="white"/>
<path d="M37.8961 53.0059L36.3938 48.829L34.7498 53.0059H37.8961ZM42.8664 58.2526H39.8259L39.0981 55.9082H33.6689L32.9318 58.2526H29.8879L36.3938 41.5468L42.8664 58.2526Z" fill="white"/>
<path d="M22.0559 48.5586H22.8365C23.7989 48.5586 24.4583 48.4366 24.8192 48.2003C25.1749 47.9589 25.355 47.5442 25.355 46.9556C25.355 46.3439 25.1894 45.9191 24.8516 45.6691C24.5189 45.4242 23.8663 45.3014 22.8954 45.3014H22.0559V48.5586ZM18.437 58.2679V42.0851H22.3597C23.9729 42.0851 25.0973 42.1483 25.7414 42.2651C26.3821 42.3786 26.9315 42.5834 27.3948 42.87C27.9211 43.2036 28.3238 43.6463 28.6019 44.2034C28.8775 44.7614 29.014 45.4012 29.014 46.134C29.014 47.052 28.8075 47.7857 28.3946 48.3283C27.9817 48.8683 27.3222 49.2803 26.4145 49.5619C27.4272 49.6497 28.2248 50.0516 28.7947 50.7699C29.368 51.4899 29.653 52.448 29.653 53.6492C29.653 54.5125 29.4951 55.2701 29.1718 55.9253C28.8502 56.5813 28.3878 57.0915 27.7923 57.4498C27.3043 57.7433 26.702 57.9548 25.9888 58.0794C25.2722 58.2048 24.1026 58.2679 22.4757 58.2679H18.437ZM22.0559 54.9638H23.4226C24.3466 54.9638 24.9992 54.8307 25.3823 54.5722C25.7644 54.3069 25.9555 53.871 25.9555 53.2593C25.9555 52.5793 25.7781 52.1093 25.4292 51.8363C25.0785 51.5675 24.4276 51.4311 23.4832 51.4311H22.0559V54.9638Z" fill="white"/>
<path d="M46.1649 58.2462L46.1794 49.5401H42.9128V46.8528H46.1794L46.1649 42.0583H49.5518L49.5655 46.8528H52.6068V49.5248H49.5655L49.5518 58.2462H46.1649Z" fill="#919031"/>
<path d="M66.8114 42.0919V51.8464C66.8114 52.929 66.5623 54.0125 66.0709 55.0968C65.0215 57.2748 63.2385 58.3643 60.7133 58.3643C58.1701 58.3643 56.3922 57.2748 55.3745 55.0968C54.8515 54.0125 54.5896 52.929 54.5896 51.8464V42.0919H57.6455V51.8464C57.6455 52.4061 57.7751 52.9461 58.0464 53.4742C58.5412 54.5568 59.4293 55.0968 60.7133 55.0968C61.9836 55.0968 62.8742 54.5568 63.3981 53.4742C63.6386 52.9461 63.7547 52.4061 63.7547 51.8464V42.0919H66.8114Z" fill="white"/>
<path fill-rule="evenodd" clip-rule="evenodd" d="M0.000214805 37.2723C0.000214805 37.2723 38.1952 35.9892 53.2596 35.8314C53.2596 35.8314 95.0044 36.4712 102.644 37.1111C68.103 38.7849 -0.139697 37.9488 0.000214805 37.2723Z" fill="#919031"/>
<path fill-rule="evenodd" clip-rule="evenodd" d="M26.5202 25.2152L43.4725 29.7009L51.3997 36.6121L39.8212 34.9681L26.5202 25.2152Z" fill="#919031"/>
<path fill-rule="evenodd" clip-rule="evenodd" d="M44.3841 24.2223L50.0675 34.8896L43.5642 29.0526L41.8793 28.4614L32.309 13.2196C32.309 13.2196 44.123 24.067 44.3841 24.2223Z" fill="#919031"/>
<path fill-rule="evenodd" clip-rule="evenodd" d="M51.7164 36.4943L51.8751 26.2449L41.4175 7.29798L44.7413 23.584C44.7285 23.5055 51.5108 36.4422 51.7164 36.4943Z" fill="#919031"/>
<path fill-rule="evenodd" clip-rule="evenodd" d="M49.2112 19.975L52.0282 25.9998L54.7923 21.5917L51.5061 0.000108146C51.5061 0.000108146 49.108 19.871 49.2112 19.975Z" fill="#919031"/>
<path fill-rule="evenodd" clip-rule="evenodd" d="M52.3146 26.2085L52.2114 33.6929L59.851 22.5307L63.0067 6.88446L55.7817 21.8959L52.3146 26.2085Z" fill="#919031"/>
<path fill-rule="evenodd" clip-rule="evenodd" d="M52.0005 35.2595L61.4914 28.008L70.9832 12.3106L60.3457 22.8441C60.3457 22.8441 51.9468 35.2595 52.0005 35.2595Z" fill="#919031"/>
<path fill-rule="evenodd" clip-rule="evenodd" d="M51.5022 36.4326L60.8925 29.0275L77.6341 24.0991L62.7165 34.3749C62.7165 34.3749 51.3998 36.4855 51.5022 36.4326Z" fill="#919031"/>
<path fill-rule="evenodd" clip-rule="evenodd" d="M77.0075 28.2195L64.9589 36.3574L61.7768 36.3045L77.0075 28.2195Z" fill="#919031"/>
<path fill-rule="evenodd" clip-rule="evenodd" d="M24.7982 28.5861L36.7162 36.6157L40.1586 36.6694L24.7982 28.5861Z" fill="#919031"/>
<path fill-rule="evenodd" clip-rule="evenodd" d="M54.0799 11.7404L55.4355 20.4235L57.7824 4.22956C57.7824 4.22956 54.0799 11.6372 54.0799 11.7404Z" fill="#919031"/>
<path fill-rule="evenodd" clip-rule="evenodd" d="M49.3978 11.3505L48.6811 19.578L45.9435 3.00361C45.9435 3.00361 49.3978 11.2447 49.3978 11.3505Z" fill="#919031"/>
</svg>
