<?xml version="1.0" encoding="UTF-8" standalone="no"?>
<!-- Created with Inkscape (http://www.inkscape.org/) -->

<svg
   version="1.1"
   id="svg2"
   width="216.96001"
   height="216.972"
   viewBox="0 0 216.96001 216.972"
   sodipodi:docname="LogoBatuq.ai"
   xmlns:inkscape="http://www.inkscape.org/namespaces/inkscape"
   xmlns:sodipodi="http://sodipodi.sourceforge.net/DTD/sodipodi-0.dtd"
   xmlns="http://www.w3.org/2000/svg"
   xmlns:svg="http://www.w3.org/2000/svg">
  <defs
     id="defs6">
    <clipPath
       clipPathUnits="userSpaceOnUse"
       id="clipPath16">
      <path
         d="M 0,162.729 H 162.72 V 0 H 0 Z"
         id="path14" />
    </clipPath>
  </defs>
  <sodipodi:namedview
     id="namedview4"
     pagecolor="#ffffff"
     bordercolor="#000000"
     borderopacity="0.25"
     inkscape:showpageshadow="2"
     inkscape:pageopacity="0.0"
     inkscape:pagecheckerboard="0"
     inkscape:deskcolor="#d1d1d1" />
  <g
     id="g8"
     inkscape:groupmode="layer"
     inkscape:label="LogoBatuq"
     transform="matrix(1.3333333,0,0,-1.3333333,0,216.972)">
    <g
       id="g10">
      <g
         id="g12"
         clip-path="url(#clipPath16)">
        <g
           id="g18"
           transform="translate(81.3545,162.729)">
          <path
             d="m 0,0 c -44.935,0 -81.364,-36.427 -81.364,-81.364 0,-44.937 36.429,-81.365 81.364,-81.365 44.938,0 81.365,36.428 81.365,81.365 C 81.365,-36.427 44.938,0 0,0"
             style="fill:#919031;fill-opacity:1;fill-rule:evenodd;stroke:none"
             id="path20" />
        </g>
        <g
           id="g22"
           transform="translate(81.3545,160.0366)">
          <path
             d="m 0,0 c 43.502,0 78.769,-35.223 78.769,-78.672 0,-43.449 -35.267,-78.671 -78.769,-78.671 -43.5,0 -78.766,35.222 -78.766,78.671 C -78.766,-35.223 -43.5,0 0,0"
             style="fill:#2f2f32;fill-opacity:1;fill-rule:evenodd;stroke:none"
             id="path24" />
        </g>
        <g
           id="g26"
           transform="translate(78.3701,150.9253)">
          <path
             d="m 0,0 2.318,8.526 3.441,-8.749 3.964,8.225 2.243,-8.601 5.085,8.078 1.346,-9.349 5.609,7.405 0.298,-9.124 6.284,7.03 -0.599,-9.275 6.88,6.358 -1.122,-8.973 7.479,5.757 -2.168,-8.899 8.374,5.01 -3.514,-8.824 8.6,4.711 -3.964,-9.049 9.049,3.666 -4.711,-8.004 9.124,2.842 -5.235,-7.851 9.422,1.944 -5.906,-6.433 9.124,1.046 -6.132,-6.731 9.385,0.15 -7.179,-6.243 9.571,-0.413 -7.402,-5.271 9.274,-1.049 -7.964,-5.234 9.2,-1.758 -8.602,-4.523 8.712,-2.694 -8.412,-3.625 8.788,-4.003 -9.124,-2.172 8.748,-4.709 -9.272,-1.272 8.002,-5.609 -9.721,-0.672 7.777,-6.06 -9.798,0.076 6.659,-5.983 h -8.75 l 6.019,-6.843 -8.713,1.31 5.087,-6.918 -8.6,2.319 4.786,-8.375 -8.376,3.138 3.591,-7.775 -7.778,2.84 2.693,-7.477 -6.88,3.738 1.494,-8.599 -6.879,4.709 1.271,-8 -6.806,5.234 0.3,-8.299 -5.758,5.756 -0.599,-8.748 -5.235,6.279 -1.496,-8.523 -4.636,6.879 -2.242,-8.604 -4.039,7.329 -2.992,-7.774 -3.44,7.18 -3.44,-7.629 -2.543,7.478 -3.664,-7.482 -2.543,8.902 -4.935,-8.08 -0.973,8.977 -5.609,-7.328 -0.449,9.498 -6.131,-7.407 0.149,9.426 -6.431,-6.66 0.822,8.826 -7.179,-5.234 1.421,8.527 -7.255,-4.713 2.767,8.676 -8.002,-4.189 3.067,8.002 -8.301,-3.141 3.888,7.478 -8.375,-2.392 4.711,7.326 -9.124,-1.57 5.236,6.209 -8.3,-0.301 5.757,6.283 h -8.974 l 6.806,5.535 -8.976,0.971 7.48,5.234 -9.348,1.272 7.104,4.785 -8.824,2.393 8.226,3.964 -8.375,3.217 8.225,3.138 -8.225,3.368 8.225,2.691 -8.3,4.637 8.824,1.496 -7.628,5.234 8.974,1.346 -6.731,5.533 8.977,0.3 -6.881,6.283 8.973,-0.598 -5.684,6.955 8.601,-1.421 -5.085,6.728 8.076,-1.421 -4.336,7.255 8.673,-2.542 -3.739,7.778 8.526,-3.291 -3.74,8.451 8.077,-4.114 -2.318,8.452 7.104,-4.786 -1.271,8.597 6.357,-5.532 0.148,8.899 5.61,-6.356 0.672,9.121 5.46,-7.103 0.823,9.123 5.383,-6.43 1.796,8.151 4.189,-7.18 2.692,8.002 c 0,0 3.813,-7.927 3.917,-8.065"
             style="fill:#ffffff;fill-opacity:1;fill-rule:evenodd;stroke:none"
             id="path28" />
        </g>
        <g
           id="g30"
           transform="translate(81.2285,146.7368)">
          <path
             d="m 0,0 c 36.067,0 65.305,-29.26 65.305,-65.354 0,-36.092 -29.238,-65.355 -65.305,-65.355 -36.065,0 -65.306,29.263 -65.306,65.355 C -65.306,-29.26 -36.065,0 0,0"
             style="fill:#919031;fill-opacity:1;fill-rule:evenodd;stroke:none"
             id="path32" />
        </g>
        <g
           id="g34"
           transform="translate(81.2285,141.0762)">
          <path
             d="m 0,0 c -32.888,0 -59.645,-26.779 -59.645,-59.694 0,-32.915 26.757,-59.694 59.645,-59.694 32.888,0 59.644,26.779 59.644,59.694 C 59.644,-26.779 32.888,0 0,0 m 0,-130.71 c -39.131,0 -70.967,31.857 -70.967,71.016 0,39.158 31.836,71.016 70.967,71.016 39.131,0 70.966,-31.858 70.966,-71.016 0,-39.159 -31.835,-71.016 -70.966,-71.016"
             style="fill:#2f2f32;fill-opacity:1;fill-rule:nonzero;stroke:none"
             id="path36" />
        </g>
        <g
           id="g38"
           transform="translate(81.3682,142.0493)">
          <path
             d="m 0,0 c 33.347,0 60.38,-27.054 60.38,-60.425 0,-33.372 -27.033,-60.423 -60.38,-60.423 -33.345,0 -60.378,27.051 -60.378,60.423 C -60.378,-27.054 -33.345,0 0,0"
             style="fill:#2f2f32;fill-opacity:1;fill-rule:evenodd;stroke:none"
             id="path40" />
        </g>
        <g
           id="g42"
           transform="translate(21.4961,81.2358)">
          <path
             d="m 0,0 c 0,0 44.771,1.504 62.429,1.689 0,0 48.932,-0.75 57.887,-1.5 C 79.828,-1.773 -0.164,-0.793 0,0"
             style="fill:#919031;fill-opacity:1;fill-rule:evenodd;stroke:none"
             id="path44" />
        </g>
        <g
           id="g46"
           transform="translate(52.582,95.3687)">
          <path
             d="m 0,0 19.871,-5.258 9.292,-8.101 -13.572,1.927 z"
             style="fill:#919031;fill-opacity:1;fill-rule:evenodd;stroke:none"
             id="path48" />
        </g>
        <g
           id="g50"
           transform="translate(73.5215,96.5327)">
          <path
             d="m 0,0 6.662,-12.504 -7.623,6.842 -1.975,0.693 -11.218,17.866 C -14.154,12.897 -0.306,0.182 0,0"
             style="fill:#919031;fill-opacity:1;fill-rule:evenodd;stroke:none"
             id="path52" />
        </g>
        <g
           id="g54"
           transform="translate(82.1162,82.1479)">
          <path
             d="m 0,0 0.186,12.014 -12.258,22.209 3.896,-19.09 C -8.191,15.225 -0.241,0.061 0,0"
             style="fill:#919031;fill-opacity:1;fill-rule:evenodd;stroke:none"
             id="path56" />
        </g>
        <g
           id="g58"
           transform="translate(79.1797,101.5112)">
          <path
             d="M 0,0 3.302,-7.062 6.542,-1.895 2.69,23.414 C 2.69,23.414 -0.121,0.122 0,0"
             style="fill:#919031;fill-opacity:1;fill-rule:evenodd;stroke:none"
             id="path60" />
        </g>
        <g
           id="g62"
           transform="translate(82.8174,94.2046)">
          <path
             d="M 0,0 -0.121,-8.773 8.834,4.311 12.533,22.651 4.064,5.055 Z"
             style="fill:#919031;fill-opacity:1;fill-rule:evenodd;stroke:none"
             id="path64" />
        </g>
        <g
           id="g66"
           transform="translate(82.4492,83.5952)">
          <path
             d="M 0,0 11.125,8.5 22.251,26.9 9.782,14.553 C 9.782,14.553 -0.063,0 0,0"
             style="fill:#919031;fill-opacity:1;fill-rule:evenodd;stroke:none"
             id="path68" />
        </g>
        <g
           id="g70"
           transform="translate(81.8652,82.2202)">
          <path
             d="M 0,0 11.007,8.68 30.631,14.457 13.145,2.412 C 13.145,2.412 -0.12,-0.062 0,0"
             style="fill:#919031;fill-opacity:1;fill-rule:evenodd;stroke:none"
             id="path72" />
        </g>
        <g
           id="g74"
           transform="translate(111.7617,91.8472)">
          <path
             d="m 0,0 -14.123,-9.539 -3.73,0.062 z"
             style="fill:#919031;fill-opacity:1;fill-rule:evenodd;stroke:none"
             id="path76" />
        </g>
        <g
           id="g78"
           transform="translate(50.5635,91.4175)">
          <path
             d="m 0,0 13.97,-9.412 4.035,-0.063 z"
             style="fill:#919031;fill-opacity:1;fill-rule:evenodd;stroke:none"
             id="path80" />
        </g>
        <g
           id="g82"
           transform="translate(84.8867,111.1636)">
          <path
             d="M 0,0 1.589,-10.178 4.34,8.804 C 4.34,8.804 0,0.121 0,0"
             style="fill:#919031;fill-opacity:1;fill-rule:evenodd;stroke:none"
             id="path84" />
        </g>
        <g
           id="g86"
           transform="translate(79.3984,111.6206)">
          <path
             d="M 0,0 -0.84,-9.644 -4.049,9.784 C -4.049,9.784 0,0.124 0,0"
             style="fill:#919031;fill-opacity:1;fill-rule:evenodd;stroke:none"
             id="path88" />
        </g>
        <g
           id="g90"
           transform="translate(112.2168,58.0371)">
          <path
             d="M 0,0 C 0.86,0 1.692,0.184 2.492,0.555 L 0.109,2.932 2.792,5.615 5.171,3.234 C 5.555,4.035 5.745,4.867 5.745,5.721 5.745,7.307 5.171,8.668 4.029,9.799 2.931,10.908 1.587,11.482 0,11.52 -1.578,11.482 -2.941,10.908 -4.077,9.799 -5.207,8.668 -5.775,7.307 -5.775,5.721 c 0,-1.58 0.568,-2.944 1.698,-4.076 C -2.941,0.551 -1.578,0 0,0 M 9.553,5.721 C 9.553,3.791 9.041,2.039 8.017,0.465 L 9.553,-1.145 6.867,-3.883 5.281,-2.289 C 3.694,-3.35 1.936,-3.883 0,-3.883 c -2.644,0 -4.913,0.945 -6.812,2.848 -1.856,1.857 -2.79,4.113 -2.79,6.756 0,2.648 0.934,4.898 2.79,6.761 1.899,1.895 4.168,2.846 6.812,2.846 2.662,0 4.915,-0.951 6.764,-2.846 1.861,-1.863 2.789,-4.113 2.789,-6.761"
             style="fill:#ffffff;fill-opacity:1;fill-rule:nonzero;stroke:none"
             id="path92" />
        </g>
        <g
           id="g94"
           transform="translate(66.833,60.5371)">
          <path
             d="M 0,0 -1.761,4.896 -3.688,0 Z M 5.826,-6.15 H 2.262 L 1.409,-3.402 H -4.955 L -5.819,-6.15 h -3.568 l 7.626,19.582 z"
             style="fill:#ffffff;fill-opacity:1;fill-rule:nonzero;stroke:none"
             id="path96" />
        </g>
        <g
           id="g98"
           transform="translate(48.2656,65.75)">
          <path
             d="m 0,0 h 0.915 c 1.128,0 1.901,0.143 2.324,0.42 0.417,0.283 0.628,0.769 0.628,1.459 0,0.717 -0.194,1.215 -0.59,1.508 C 2.887,3.674 2.122,3.818 0.984,3.818 H 0 Z M -4.242,-11.381 V 7.588 H 0.356 C 2.247,7.588 3.565,7.514 4.32,7.377 5.071,7.244 5.715,7.004 6.258,6.668 6.875,6.277 7.347,5.758 7.673,5.105 7.996,4.451 8.156,3.701 8.156,2.842 8.156,1.766 7.914,0.906 7.43,0.27 6.946,-0.363 6.173,-0.846 5.109,-1.176 6.296,-1.279 7.231,-1.75 7.899,-2.592 8.571,-3.436 8.905,-4.559 8.905,-5.967 8.905,-6.979 8.72,-7.867 8.341,-8.635 7.964,-9.404 7.422,-10.002 6.724,-10.422 6.152,-10.766 5.446,-11.014 4.61,-11.16 3.77,-11.307 2.399,-11.381 0.492,-11.381 Z M 0,-7.508 h 1.602 c 1.083,0 1.848,0.156 2.297,0.459 0.448,0.311 0.672,0.822 0.672,1.539 0,0.797 -0.208,1.348 -0.617,1.668 -0.411,0.315 -1.174,0.475 -2.281,0.475 H 0 Z"
             style="fill:#ffffff;fill-opacity:1;fill-rule:nonzero;stroke:none"
             id="path100" />
        </g>
        <g
           id="g102"
           transform="translate(76.5254,54.3945)">
          <path
             d="m 0,0 0.017,10.205 h -3.829 v 3.15 H 0.017 L 0,18.975 h 3.97 l 0.016,-5.62 H 7.551 V 10.223 H 3.986 L 3.97,0 Z"
             style="fill:#919031;fill-opacity:1;fill-rule:nonzero;stroke:none"
             id="path104" />
        </g>
        <g
           id="g106"
           transform="translate(100.7266,73.3301)">
          <path
             d="m 0,0 v -11.434 c 0,-1.269 -0.292,-2.539 -0.868,-3.81 -1.23,-2.553 -3.32,-3.83 -6.28,-3.83 -2.981,0 -5.065,1.277 -6.258,3.83 -0.613,1.271 -0.92,2.541 -0.92,3.81 V 0 h 3.582 v -11.434 c 0,-0.656 0.152,-1.289 0.47,-1.908 0.58,-1.269 1.621,-1.902 3.126,-1.902 1.489,0 2.533,0.633 3.147,1.902 0.282,0.619 0.418,1.252 0.418,1.908 V 0 Z"
             style="fill:#ffffff;fill-opacity:1;fill-rule:nonzero;stroke:none"
             id="path108" />
        </g>
      </g>
    </g>
  </g>
</svg>
